<?xml version="1.0" encoding="utf-8"?>
<!-- Generator: Adobe Illustrator 16.0.0, SVG Export Plug-In . SVG Version: 6.00 Build 0)  -->
<!DOCTYPE svg PUBLIC "-//W3C//DTD SVG 1.1//EN" "http://www.w3.org/Graphics/SVG/1.1/DTD/svg11.dtd">
<svg version="1.1" id="Layer_1" xmlns="http://www.w3.org/2000/svg" xmlns:xlink="http://www.w3.org/1999/xlink" x="0px" y="0px"
	 width="476.667px" height="129px" viewBox="7.666 208.167 476.667 129" enable-background="new 7.666 208.167 476.667 129"
	 xml:space="preserve">
<pattern  x="-438.334" y="414.667" width="72" height="72" patternUnits="userSpaceOnUse" id="USGS_19_Land_Inundation" viewBox="73 -72 72 72" overflow="visible">
	<g>
		<polygon fill="none" points="73,-72 145,-72 145,0 73,0 		"/>
		<g>
			<line fill="none" stroke="#231F20" stroke-width="0.3" stroke-dasharray="2,2" x1="144" y1="-1" x2="217.439" y2="-1"/>
			<line fill="none" stroke="#231F20" stroke-width="0.3" stroke-dasharray="2,2" x1="144" y1="-5" x2="217.439" y2="-5"/>
			<line fill="none" stroke="#231F20" stroke-width="0.3" stroke-dasharray="2,2" x1="144" y1="-9" x2="217.439" y2="-9"/>
			<line fill="none" stroke="#231F20" stroke-width="0.3" stroke-dasharray="2,2" x1="144" y1="-13" x2="217.439" y2="-13"/>
			<line fill="none" stroke="#231F20" stroke-width="0.3" stroke-dasharray="2,2" x1="144" y1="-17" x2="217.439" y2="-17"/>
			<line fill="none" stroke="#231F20" stroke-width="0.3" stroke-dasharray="2,2" x1="144" y1="-21" x2="217.439" y2="-21"/>
			<line fill="none" stroke="#231F20" stroke-width="0.3" stroke-dasharray="2,2" x1="144" y1="-25" x2="217.439" y2="-25"/>
			<line fill="none" stroke="#231F20" stroke-width="0.3" stroke-dasharray="2,2" x1="144" y1="-29" x2="217.439" y2="-29"/>
			<line fill="none" stroke="#231F20" stroke-width="0.3" stroke-dasharray="2,2" x1="144" y1="-33" x2="217.439" y2="-33"/>
			<line fill="none" stroke="#231F20" stroke-width="0.3" stroke-dasharray="2,2" x1="144" y1="-37" x2="217.439" y2="-37"/>
			<line fill="none" stroke="#231F20" stroke-width="0.3" stroke-dasharray="2,2" x1="144" y1="-41" x2="217.439" y2="-41"/>
			<line fill="none" stroke="#231F20" stroke-width="0.3" stroke-dasharray="2,2" x1="144" y1="-45" x2="217.439" y2="-45"/>
			<line fill="none" stroke="#231F20" stroke-width="0.3" stroke-dasharray="2,2" x1="144" y1="-49" x2="217.439" y2="-49"/>
			<line fill="none" stroke="#231F20" stroke-width="0.3" stroke-dasharray="2,2" x1="144" y1="-53" x2="217.439" y2="-53"/>
			<line fill="none" stroke="#231F20" stroke-width="0.3" stroke-dasharray="2,2" x1="144" y1="-57" x2="217.439" y2="-57"/>
			<line fill="none" stroke="#231F20" stroke-width="0.3" stroke-dasharray="2,2" x1="144" y1="-61" x2="217.439" y2="-61"/>
			<line fill="none" stroke="#231F20" stroke-width="0.3" stroke-dasharray="2,2" x1="144" y1="-65" x2="217.439" y2="-65"/>
			<line fill="none" stroke="#231F20" stroke-width="0.3" stroke-dasharray="2,2" x1="144" y1="-69" x2="217.439" y2="-69"/>
		</g>
		<g>
			<line fill="none" stroke="#231F20" stroke-width="0.3" stroke-dasharray="2,2" x1="72" y1="-1" x2="145.439" y2="-1"/>
			<line fill="none" stroke="#231F20" stroke-width="0.3" stroke-dasharray="2,2" x1="72" y1="-5" x2="145.439" y2="-5"/>
			<line fill="none" stroke="#231F20" stroke-width="0.3" stroke-dasharray="2,2" x1="72" y1="-9" x2="145.439" y2="-9"/>
			<line fill="none" stroke="#231F20" stroke-width="0.3" stroke-dasharray="2,2" x1="72" y1="-13" x2="145.439" y2="-13"/>
			<line fill="none" stroke="#231F20" stroke-width="0.3" stroke-dasharray="2,2" x1="72" y1="-17" x2="145.439" y2="-17"/>
			<line fill="none" stroke="#231F20" stroke-width="0.3" stroke-dasharray="2,2" x1="72" y1="-21" x2="145.439" y2="-21"/>
			<line fill="none" stroke="#231F20" stroke-width="0.3" stroke-dasharray="2,2" x1="72" y1="-25" x2="145.439" y2="-25"/>
			<line fill="none" stroke="#231F20" stroke-width="0.3" stroke-dasharray="2,2" x1="72" y1="-29" x2="145.439" y2="-29"/>
			<line fill="none" stroke="#231F20" stroke-width="0.3" stroke-dasharray="2,2" x1="72" y1="-33" x2="145.439" y2="-33"/>
			<line fill="none" stroke="#231F20" stroke-width="0.3" stroke-dasharray="2,2" x1="72" y1="-37" x2="145.439" y2="-37"/>
			<line fill="none" stroke="#231F20" stroke-width="0.3" stroke-dasharray="2,2" x1="72" y1="-41" x2="145.439" y2="-41"/>
			<line fill="none" stroke="#231F20" stroke-width="0.3" stroke-dasharray="2,2" x1="72" y1="-45" x2="145.439" y2="-45"/>
			<line fill="none" stroke="#231F20" stroke-width="0.3" stroke-dasharray="2,2" x1="72" y1="-49" x2="145.439" y2="-49"/>
			<line fill="none" stroke="#231F20" stroke-width="0.3" stroke-dasharray="2,2" x1="72" y1="-53" x2="145.439" y2="-53"/>
			<line fill="none" stroke="#231F20" stroke-width="0.3" stroke-dasharray="2,2" x1="72" y1="-57" x2="145.439" y2="-57"/>
			<line fill="none" stroke="#231F20" stroke-width="0.3" stroke-dasharray="2,2" x1="72" y1="-61" x2="145.439" y2="-61"/>
			<line fill="none" stroke="#231F20" stroke-width="0.3" stroke-dasharray="2,2" x1="72" y1="-65" x2="145.439" y2="-65"/>
			<line fill="none" stroke="#231F20" stroke-width="0.3" stroke-dasharray="2,2" x1="72" y1="-69" x2="145.439" y2="-69"/>
			<line fill="none" stroke="#231F20" stroke-width="0.3" stroke-dasharray="2,2" x1="74.039" y1="-3" x2="147.48" y2="-3"/>
			<line fill="none" stroke="#231F20" stroke-width="0.3" stroke-dasharray="2,2" x1="74.039" y1="-7" x2="147.48" y2="-7"/>
			<line fill="none" stroke="#231F20" stroke-width="0.3" stroke-dasharray="2,2" x1="74.039" y1="-11" x2="147.48" y2="-11"/>
			<line fill="none" stroke="#231F20" stroke-width="0.3" stroke-dasharray="2,2" x1="74.039" y1="-15" x2="147.48" y2="-15"/>
			<line fill="none" stroke="#231F20" stroke-width="0.3" stroke-dasharray="2,2" x1="74.039" y1="-19" x2="147.48" y2="-19"/>
			<line fill="none" stroke="#231F20" stroke-width="0.3" stroke-dasharray="2,2" x1="74.039" y1="-23" x2="147.48" y2="-23"/>
			<line fill="none" stroke="#231F20" stroke-width="0.3" stroke-dasharray="2,2" x1="74.039" y1="-27" x2="147.48" y2="-27"/>
			<line fill="none" stroke="#231F20" stroke-width="0.3" stroke-dasharray="2,2" x1="74.039" y1="-31" x2="147.48" y2="-31"/>
			<line fill="none" stroke="#231F20" stroke-width="0.3" stroke-dasharray="2,2" x1="74.039" y1="-35" x2="147.48" y2="-35"/>
			<line fill="none" stroke="#231F20" stroke-width="0.3" stroke-dasharray="2,2" x1="74.039" y1="-39" x2="147.48" y2="-39"/>
			<line fill="none" stroke="#231F20" stroke-width="0.3" stroke-dasharray="2,2" x1="74.039" y1="-43" x2="147.48" y2="-43"/>
			<line fill="none" stroke="#231F20" stroke-width="0.3" stroke-dasharray="2,2" x1="74.039" y1="-47" x2="147.48" y2="-47"/>
			<line fill="none" stroke="#231F20" stroke-width="0.3" stroke-dasharray="2,2" x1="74.039" y1="-51" x2="147.48" y2="-51"/>
			<line fill="none" stroke="#231F20" stroke-width="0.3" stroke-dasharray="2,2" x1="74.039" y1="-55" x2="147.48" y2="-55"/>
			<line fill="none" stroke="#231F20" stroke-width="0.3" stroke-dasharray="2,2" x1="74.039" y1="-59" x2="147.48" y2="-59"/>
			<line fill="none" stroke="#231F20" stroke-width="0.3" stroke-dasharray="2,2" x1="74.039" y1="-63" x2="147.48" y2="-63"/>
			<line fill="none" stroke="#231F20" stroke-width="0.3" stroke-dasharray="2,2" x1="74.039" y1="-67" x2="147.48" y2="-67"/>
			<line fill="none" stroke="#231F20" stroke-width="0.3" stroke-dasharray="2,2" x1="74.039" y1="-71" x2="147.48" y2="-71"/>
		</g>
		<g>
			<line fill="none" stroke="#231F20" stroke-width="0.3" stroke-dasharray="2,2" x1="0" y1="-1" x2="73.439" y2="-1"/>
			<line fill="none" stroke="#231F20" stroke-width="0.3" stroke-dasharray="2,2" x1="0" y1="-5" x2="73.439" y2="-5"/>
			<line fill="none" stroke="#231F20" stroke-width="0.3" stroke-dasharray="2,2" x1="0" y1="-9" x2="73.439" y2="-9"/>
			<line fill="none" stroke="#231F20" stroke-width="0.3" stroke-dasharray="2,2" x1="0" y1="-13" x2="73.439" y2="-13"/>
			<line fill="none" stroke="#231F20" stroke-width="0.3" stroke-dasharray="2,2" x1="0" y1="-17" x2="73.439" y2="-17"/>
			<line fill="none" stroke="#231F20" stroke-width="0.3" stroke-dasharray="2,2" x1="0" y1="-21" x2="73.439" y2="-21"/>
			<line fill="none" stroke="#231F20" stroke-width="0.3" stroke-dasharray="2,2" x1="0" y1="-25" x2="73.439" y2="-25"/>
			<line fill="none" stroke="#231F20" stroke-width="0.3" stroke-dasharray="2,2" x1="0" y1="-29" x2="73.439" y2="-29"/>
			<line fill="none" stroke="#231F20" stroke-width="0.3" stroke-dasharray="2,2" x1="0" y1="-33" x2="73.439" y2="-33"/>
			<line fill="none" stroke="#231F20" stroke-width="0.3" stroke-dasharray="2,2" x1="0" y1="-37" x2="73.439" y2="-37"/>
			<line fill="none" stroke="#231F20" stroke-width="0.3" stroke-dasharray="2,2" x1="0" y1="-41" x2="73.439" y2="-41"/>
			<line fill="none" stroke="#231F20" stroke-width="0.3" stroke-dasharray="2,2" x1="0" y1="-45" x2="73.439" y2="-45"/>
			<line fill="none" stroke="#231F20" stroke-width="0.3" stroke-dasharray="2,2" x1="0" y1="-49" x2="73.439" y2="-49"/>
			<line fill="none" stroke="#231F20" stroke-width="0.3" stroke-dasharray="2,2" x1="0" y1="-53" x2="73.439" y2="-53"/>
			<line fill="none" stroke="#231F20" stroke-width="0.3" stroke-dasharray="2,2" x1="0" y1="-57" x2="73.439" y2="-57"/>
			<line fill="none" stroke="#231F20" stroke-width="0.3" stroke-dasharray="2,2" x1="0" y1="-61" x2="73.439" y2="-61"/>
			<line fill="none" stroke="#231F20" stroke-width="0.3" stroke-dasharray="2,2" x1="0" y1="-65" x2="73.439" y2="-65"/>
			<line fill="none" stroke="#231F20" stroke-width="0.3" stroke-dasharray="2,2" x1="0" y1="-69" x2="73.439" y2="-69"/>
			<line fill="none" stroke="#231F20" stroke-width="0.3" stroke-dasharray="2,2" x1="2.039" y1="-3" x2="75.48" y2="-3"/>
			<line fill="none" stroke="#231F20" stroke-width="0.3" stroke-dasharray="2,2" x1="2.039" y1="-7" x2="75.48" y2="-7"/>
			<line fill="none" stroke="#231F20" stroke-width="0.3" stroke-dasharray="2,2" x1="2.039" y1="-11" x2="75.48" y2="-11"/>
			<line fill="none" stroke="#231F20" stroke-width="0.3" stroke-dasharray="2,2" x1="2.039" y1="-15" x2="75.48" y2="-15"/>
			<line fill="none" stroke="#231F20" stroke-width="0.3" stroke-dasharray="2,2" x1="2.039" y1="-19" x2="75.48" y2="-19"/>
			<line fill="none" stroke="#231F20" stroke-width="0.3" stroke-dasharray="2,2" x1="2.039" y1="-23" x2="75.48" y2="-23"/>
			<line fill="none" stroke="#231F20" stroke-width="0.3" stroke-dasharray="2,2" x1="2.039" y1="-27" x2="75.48" y2="-27"/>
			<line fill="none" stroke="#231F20" stroke-width="0.3" stroke-dasharray="2,2" x1="2.039" y1="-31" x2="75.48" y2="-31"/>
			<line fill="none" stroke="#231F20" stroke-width="0.3" stroke-dasharray="2,2" x1="2.039" y1="-35" x2="75.48" y2="-35"/>
			<line fill="none" stroke="#231F20" stroke-width="0.3" stroke-dasharray="2,2" x1="2.039" y1="-39" x2="75.48" y2="-39"/>
			<line fill="none" stroke="#231F20" stroke-width="0.3" stroke-dasharray="2,2" x1="2.039" y1="-43" x2="75.48" y2="-43"/>
			<line fill="none" stroke="#231F20" stroke-width="0.3" stroke-dasharray="2,2" x1="2.039" y1="-47" x2="75.48" y2="-47"/>
			<line fill="none" stroke="#231F20" stroke-width="0.3" stroke-dasharray="2,2" x1="2.039" y1="-51" x2="75.48" y2="-51"/>
			<line fill="none" stroke="#231F20" stroke-width="0.3" stroke-dasharray="2,2" x1="2.039" y1="-55" x2="75.48" y2="-55"/>
			<line fill="none" stroke="#231F20" stroke-width="0.3" stroke-dasharray="2,2" x1="2.039" y1="-59" x2="75.48" y2="-59"/>
			<line fill="none" stroke="#231F20" stroke-width="0.3" stroke-dasharray="2,2" x1="2.039" y1="-63" x2="75.48" y2="-63"/>
			<line fill="none" stroke="#231F20" stroke-width="0.3" stroke-dasharray="2,2" x1="2.039" y1="-67" x2="75.48" y2="-67"/>
			<line fill="none" stroke="#231F20" stroke-width="0.3" stroke-dasharray="2,2" x1="2.039" y1="-71" x2="75.48" y2="-71"/>
		</g>
	</g>
</pattern>
<rect x="51" y="214.5" fill="url(#USGS_19_Land_Inundation)" width="110.333" height="18.666"/>
<g transform="translate(5, 0)">
</g>
<path fill="none" enable-background="new    " d="M2.667,208.167"/>
<path fill="none" enable-background="new    " d="M2.667,208.167"/>
<polyline fill="none" stroke="#000000" points="161.333,213.167 161.333,253.167 51,253.167 51,214.5 "/>
<rect x="51" y="253.167" fill="none" stroke="#000000" width="110.333" height="20"/>
<rect x="51" y="233.167" fill="none" stroke="#000000" width="110.333" height="20.001"/>
<rect x="51" y="273.167" fill="none" stroke="#000000" width="110.333" height="20"/>
<text transform="matrix(1 0 0 1 10.3328 288.8345)" font-family="'Ubuntu'" font-size="12">ESP</text>
<path d="M36,280.834l6,3l-6,3V280.834z"/>
<path d="M36,283.834"/>
<text transform="matrix(1 0 0 1 173.6658 247.1665)" font-family="'Ubuntu'" font-size="12">EBP</text>
<path d="M170.455,245.167l-6-3l6-3L170.455,245.167z"/>
<path d="M194.333,242.167"/>
<g>
	<g>
		<path fill="none" stroke="#000000" stroke-miterlimit="10" d="M150.243,283.167c39.179,0,37.681-15.793,23.209-19.312"/>
		<g>
			<path d="M167.455,263.167c2.95-0.688,6.672-2.027,9.078-3.642l-2.305,4.501l1.107,4.935
				C173.408,266.796,170.139,264.57,167.455,263.167z"/>
		</g>
	</g>
</g>
<pattern  id="SVGID_1_" xlink:href="#USGS_19_Land_Inundation" patternTransform="matrix(1 0 0 1 30.3335 0)">
</pattern>
<rect x="297.333" y="214.5" fill="url(#SVGID_1_)" width="110.333" height="18.666"/>
<polyline fill="none" stroke="#000000" points="407.666,213.167 407.666,253.167 297.333,253.167 297.333,214.5 "/>
<rect x="297.333" y="253.167" fill="none" stroke="#000000" width="110.333" height="20"/>
<rect x="297.333" y="233.167" fill="none" stroke="#000000" width="110.333" height="20.001"/>
<rect x="297.333" y="273.167" fill="none" stroke="#000000" width="110.333" height="20"/>
<rect x="297.333" y="293.167" fill="none" stroke="#000000" width="110.333" height="20"/>
<rect x="297.333" y="313.167" fill="none" stroke="#000000" width="110.333" height="20"/>
<text transform="matrix(1 0 0 1 256.6663 329.1675)" font-family="'Ubuntu'" font-size="12">ESP</text>
<path d="M282.333,321.167l6,3l-6,3V321.167z"/>
<path d="M282.333,260.167l6,3l-6,3V260.167z"/>
<path d="M282.333,324.167"/>
<text transform="matrix(1 0 0 1 341.4993 308.1665)" font-family="'Ubuntu'" font-size="12">EIP</text>
<text transform="matrix(1 0 0 1 341.4993 327.1675)" font-family="'Ubuntu'" font-size="12">EBP</text>
<text transform="matrix(1 0 0 1 419.9993 328.1675)" font-family="'Ubuntu'" font-size="12">EBP</text>
<text transform="matrix(1 0 0 1 347.4993 268.5015)" font-family="'Ubuntu'" font-size="12">7</text>
<text transform="matrix(1 0 0 1 347.4993 247.1665)" font-family="'Ubuntu'" font-size="12">5</text>
<text transform="matrix(1 0 0 1 446.4543 278.4995)" font-family="'Ubuntu'" font-size="12">EBP+8</text>
<text transform="matrix(1 0 0 1 256.6663 266.8345)" font-family="'Ubuntu'" font-size="12">EAX</text>
<text transform="matrix(1 0 0 1 243.6663 247.1665)" font-family="'Ubuntu'" font-size="12">EAX+4</text>
<path d="M416.788,326.167l-6-3l5.999-3L416.788,326.167z"/>
<path d="M440.666,242.167"/>
<g>
	<g>
		<path fill="none" stroke="#000000" stroke-miterlimit="10" d="M396.576,283.167c39.18,0,37.682-15.793,23.209-19.312"/>
		<g>
			<path d="M413.788,263.167c2.95-0.688,6.672-2.027,9.078-3.642l-2.306,4.501l1.107,4.935
				C419.742,266.796,416.473,264.57,413.788,263.167z"/>
		</g>
	</g>
</g>
<g>
	<g>
		<polyline fill="none" stroke="#000000" stroke-miterlimit="10" points="447,324.167 453,324.167 453,280.834 433.035,280.834 		
			"/>
		<g>
			<path d="M427,280.834c2.84-1.054,6.363-2.852,8.547-4.756l-1.72,4.756l1.72,4.755C433.364,283.685,429.84,281.887,427,280.834z"
				/>
		</g>
	</g>
</g>
<path d="M282.332,239.167l6,3l-6,3V239.167z"/>
</svg>
