<?xml version="1.0" encoding="utf-8"?>
<!-- Generator: Adobe Illustrator 16.0.0, SVG Export Plug-In . SVG Version: 6.00 Build 0)  -->
<!DOCTYPE svg PUBLIC "-//W3C//DTD SVG 1.1//EN" "http://www.w3.org/Graphics/SVG/1.1/DTD/svg11.dtd">
<svg version="1.1" id="Layer_1" xmlns="http://www.w3.org/2000/svg" xmlns:xlink="http://www.w3.org/1999/xlink" x="0px" y="0px"
	 width="205px" height="126.5px" viewBox="0 247 205 126.5" enable-background="new 0 247 205 126.5" xml:space="preserve">
<polyline fill="none" stroke="#000000" points="200,250 200,290 50,290 50,250 "/>
<path fill="none" stroke="#000000" d="M200,250"/>
<path fill="none" stroke="#000000" d="M50,250"/>
<text transform="matrix(1 0 0 1 54.9998 264.9995)" font-family="'Ubuntu-Medium'" font-size="12">initial stack</text>
<rect x="50" y="290" fill="none" stroke="#000000" width="150" height="20"/>
<g transform="translate(5, 15)">
	<text transform="matrix(1 0 0 1 49.9998 289.9995)" font-family="'Ubuntu'" font-size="12">lpvReserved</text>
</g>
<rect x="50" y="310" fill="none" stroke="#000000" width="150" height="20"/>
<g transform="translate(5, 15)">
	<text transform="matrix(1 0 0 1 49.9998 309.9995)" font-family="'Ubuntu'" font-size="12">fdwReason</text>
</g>
<rect x="50" y="330" fill="none" stroke="#000000" width="150" height="20"/>
<g transform="translate(5, 15)">
	<text transform="matrix(1 0 0 1 49.9998 329.9995)" font-family="'Ubuntu'" font-size="12">hinstDLL</text>
</g>
<rect x="50" y="350" fill="none" stroke="#000000" width="150" height="20"/>
<g transform="translate(5, 15)">
	<text transform="matrix(1 0 0 1 49.9998 349.9995)" font-family="'Ubuntu'" font-size="12">EIP</text>
</g>
<g transform="translate(-40, 100)">
	<text transform="matrix(1 0 0 1 49.9998 264.9995)" font-family="'Ubuntu'" font-size="12">ESP</text>
	<path d="M82,257l6,3l-6,3V257z"/>
	<path d="M82,260"/>
</g>
</svg>
