<?xml version="1.0" encoding="utf-8"?>
<!-- Generator: Adobe Illustrator 16.0.0, SVG Export Plug-In . SVG Version: 6.00 Build 0)  -->
<!DOCTYPE svg PUBLIC "-//W3C//DTD SVG 1.1//EN" "http://www.w3.org/Graphics/SVG/1.1/DTD/svg11.dtd">
<svg version="1.1" id="Layer_1" xmlns="http://www.w3.org/2000/svg" xmlns:xlink="http://www.w3.org/1999/xlink" x="0px" y="0px"
	 width="267.593px" height="453.178px" viewBox="0 2444.5 267.593 453.178" enable-background="new 0 2444.5 267.593 453.178"
	 xml:space="preserve">
<line fill="#FFFFFF" x1="620" y1="9300" x2="0" y2="9300"/>
<g transform="translate(0, 0)">
	<g transform="translate(10, 10)">
		<g transform="translate(40, 0)">
			<g transform="translate(-40, 40)">
			</g>
		</g>
	</g>
</g>
<g transform="translate(310, 0)">
	<g transform="translate(10, 10)">
		<g transform="translate(40, 0)">
			<g transform="translate(-40, 60)">
			</g>
		</g>
	</g>
</g>
<g transform="translate(0, 100)">
	<g transform="translate(10, 10)">
		<g transform="translate(40, 0)">
			<g transform="translate(-40, 80)">
			</g>
		</g>
	</g>
</g>
<g transform="translate(310, 100)">
	<g transform="translate(10, 10)">
		<g transform="translate(40, 0)">
			<g transform="translate(-40, 100)">
			</g>
		</g>
	</g>
</g>
<g transform="translate(0, 240)">
	<g transform="translate(10, 10)">
		<g transform="translate(40, 0)">
			<g transform="translate(-40, 120)">
			</g>
		</g>
	</g>
</g>
<g transform="translate(310, 240)">
	<g transform="translate(10, 10)">
		<g transform="translate(40, 0)">
			<g transform="translate(-40, 120)">
			</g>
		</g>
	</g>
</g>
<g transform="translate(0, 400)">
	<g transform="translate(10, 10)">
		<g transform="translate(40, 0)">
			<g transform="translate(-40, 180)">
			</g>
		</g>
	</g>
</g>
<g transform="translate(310, 400)">
	<g transform="translate(10, 10)">
		<g transform="translate(40, 0)">
			<g transform="translate(-40, 200)">
			</g>
		</g>
	</g>
</g>
<g transform="translate(0, 640)">
	<g transform="translate(10, 10)">
		<g transform="translate(40, 0)">
			<g transform="translate(-40, 220)">
			</g>
		</g>
	</g>
</g>
<g transform="translate(310, 640)">
	<g transform="translate(10, 10)">
		<g transform="translate(40, 0)">
			<g transform="translate(-40, 240)">
			</g>
		</g>
	</g>
</g>
<g transform="translate(0, 920)">
	<g transform="translate(10, 10)">
		<g transform="translate(40, 0)">
			<g transform="translate(-40, 260)">
			</g>
		</g>
	</g>
</g>
<g transform="translate(310, 920)">
	<g transform="translate(10, 10)">
		<g transform="translate(40, 0)">
			<g transform="translate(-40, 280)">
			</g>
		</g>
	</g>
</g>
<g transform="translate(0, 1240)">
	<g transform="translate(10, 10)">
		<g transform="translate(40, 0)">
			<g transform="translate(-40, 300)">
			</g>
		</g>
	</g>
</g>
<g transform="translate(310, 1240)">
	<g transform="translate(10, 10)">
		<g transform="translate(40, 0)">
			<g transform="translate(-40, 320)">
			</g>
		</g>
	</g>
</g>
<g transform="translate(0, 1600)">
	<g transform="translate(10, 10)">
		<g transform="translate(40, 0)">
			<g transform="translate(-40, 340)">
			</g>
		</g>
	</g>
</g>
<g transform="translate(310, 1600)">
	<g transform="translate(10, 10)">
		<g transform="translate(40, 0)">
			<g transform="translate(-40, 360)">
			</g>
		</g>
	</g>
</g>
<g transform="translate(0, 2000)">
	<g transform="translate(10, 10)">
		<g transform="translate(40, 0)">
			<g transform="translate(-40, 380)">
			</g>
		</g>
	</g>
</g>
<g transform="translate(310, 2000)">
	<g transform="translate(10, 10)">
		<g transform="translate(40, 0)">
			<g transform="translate(-40, 400)">
			</g>
		</g>
	</g>
</g>
<g transform="translate(0, 0)">
	<polyline fill="none" stroke="#000000" points="200,2450 200,2490 50,2490 50,2450 	"/>
	<g transform="translate(5, 15)">
		<text transform="matrix(1 0 0 1 49.9998 2449.9995)" font-family="'Ubuntu'" font-size="12">tagPROCESSENTRY32</text>
	</g>
</g>
<g transform="translate(0, 40)">
	<rect x="50" y="2450" fill="none" stroke="#000000" width="150" height="20"/>
	<g transform="translate(5, 15)">
		<text transform="matrix(1 0 0 1 49.9998 2449.9995)" font-family="'Ubuntu'" font-size="12">lpvReserved</text>
	</g>
	<g transform="translate(5, 0)">
		<g transform="translate(150, 15)">
			<text transform="matrix(1 0 0 1 49.9998 2449.9995)" font-family="'Ubuntu'" font-size="12">[ebp +10]</text>
		</g>
	</g>
</g>
<g transform="translate(0, 60)">
	<rect x="50" y="2450" fill="none" stroke="#000000" width="150" height="20"/>
	<g transform="translate(5, 15)">
		<text transform="matrix(1 0 0 1 49.9998 2449.9995)" font-family="'Ubuntu'" font-size="12">fdwReason</text>
	</g>
	<g transform="translate(5, 0)">
		<g transform="translate(150, 15)">
			<text transform="matrix(1 0 0 1 49.9998 2449.9995)" font-family="'Ubuntu'" font-size="12">[ebp +C]</text>
		</g>
	</g>
</g>
<g transform="translate(0, 80)">
	<rect x="50" y="2450" fill="none" stroke="#000000" width="150" height="20"/>
	<g transform="translate(5, 15)">
		<text transform="matrix(1 0 0 1 49.9998 2449.9995)" font-family="'Ubuntu'" font-size="12">hinstDLL</text>
	</g>
	<g transform="translate(5, 0)">
		<g transform="translate(150, 15)">
			<text transform="matrix(1 0 0 1 49.9998 2449.9995)" font-family="'Ubuntu'" font-size="12">[ebp +8]</text>
		</g>
	</g>
</g>
<g transform="translate(0, 100)">
	<rect x="50" y="2450" fill="none" stroke="#000000" width="150" height="20"/>
	<g transform="translate(5, 15)">
		<text transform="matrix(1 0 0 1 49.9998 2449.9995)" font-family="'Ubuntu'" font-size="12">eip</text>
	</g>
	<g transform="translate(5, 0)">
		<g transform="translate(150, 15)">
			<text transform="matrix(1 0 0 1 49.9998 2449.9995)" font-family="'Ubuntu'" font-size="12">[ebp +4]</text>
		</g>
	</g>
</g>
<g transform="translate(0, 120)">
	<rect x="50" y="2450" fill="none" stroke="#000000" width="150" height="20"/>
	<g transform="translate(5, 15)">
		<text transform="matrix(1 0 0 1 49.9998 2449.9995)" font-family="'Ubuntu'" font-size="12">ebp</text>
	</g>
	<g transform="translate(5, 0)">
		<g transform="translate(150, 15)">
			<text transform="matrix(1 0 0 1 49.9998 2449.9995)" font-family="'Ubuntu'" font-size="12">EBP</text>
		</g>
	</g>
</g>
<rect x="50" y="2590" fill="none" stroke="#000000" width="150" height="20"/>
<g transform="translate(5, 15)">
</g>
<g transform="translate(5, 0)">
	<g transform="translate(150, 15)">
		<text transform="matrix(1 0 0 1 49.9998 2589.9995)" font-family="'Ubuntu'" font-size="12">[ebp -4]</text>
	</g>
</g>
<g transform="translate(5, 0)">
	<g transform="translate(150, 15)">
		<text transform="matrix(1 0 0 1 49.9998 2608.9995)" font-family="'Ubuntu'" font-size="12">[ebp -8]</text>
	</g>
</g>
<rect x="50" y="2610" fill="none" stroke="#000000" width="150" height="20"/>
<polyline fill="none" stroke="#000000" points="200,2670.168 200,2690 50,2690 50,2674.167 "/>
<path fill="none" stroke="#000000" d="M200,2670.168"/>
<path fill="none" stroke="#000000" d="M200,2644.001"/>
<path fill="none" stroke="#000000" d="M50,2649.668"/>
<path fill="none" stroke="#000000" d="M50,2674.167"/>
<g transform="translate(5, 15)">
	<text transform="matrix(1 0 0 1 49.9998 2629.9995)" font-family="'Ubuntu'" font-size="12">szexefile</text>
</g>
<g transform="translate(5, 0)">
	<g transform="translate(150, 15)">
		<text transform="matrix(1 0 0 1 49.9998 2629.9995)" font-family="'Ubuntu'" font-size="12">[ebp -C]</text>
	</g>
</g>
<g transform="translate(0, 240)">
	<rect x="50" y="2450" fill="none" stroke="#000000" width="150" height="20"/>
	<g transform="translate(5, 15)">
		<text transform="matrix(1 0 0 1 49.9998 2449.9995)" font-family="'Ubuntu'" font-size="12">dwflags</text>
	</g>
	<g transform="translate(5, 0)">
		<g transform="translate(150, 15)">
			<text transform="matrix(1 0 0 1 49.9998 2449.9995)" font-family="'Ubuntu'" font-size="12">[ebp -110]</text>
		</g>
	</g>
</g>
<g transform="translate(0, 260)">
	<rect x="50" y="2450" fill="none" stroke="#000000" width="150" height="20"/>
	<g transform="translate(5, 15)">
		<text transform="matrix(1 0 0 1 49.9998 2449.9995)" font-family="'Ubuntu'" font-size="12">pcpriclassbase</text>
	</g>
	<g transform="translate(5, 0)">
		<g transform="translate(150, 15)">
			<text transform="matrix(1 0 0 1 49.9998 2449.9995)" font-family="'Ubuntu'" font-size="12">[ebp -114]</text>
		</g>
	</g>
</g>
<g transform="translate(0, 280)">
	<rect x="50" y="2450" fill="none" stroke="#000000" width="150" height="20"/>
	<g transform="translate(5, 15)">
		<text transform="matrix(1 0 0 1 49.9998 2449.9995)" font-family="'Ubuntu'" font-size="12">th32parentprocessid</text>
	</g>
	<g transform="translate(5, 0)">
		<g transform="translate(150, 15)">
			<text transform="matrix(1 0 0 1 49.9998 2449.9995)" font-family="'Ubuntu'" font-size="12">[ebp -118]</text>
		</g>
	</g>
</g>
<g transform="translate(0, 300)">
	<rect x="50" y="2450" fill="none" stroke="#000000" width="150" height="20"/>
	<g transform="translate(5, 15)">
		<text transform="matrix(1 0 0 1 49.9998 2449.9995)" font-family="'Ubuntu'" font-size="12">cntthreads</text>
	</g>
	<g transform="translate(5, 0)">
		<g transform="translate(150, 15)">
			<text transform="matrix(1 0 0 1 49.9998 2449.9995)" font-family="'Ubuntu'" font-size="12">[ebp -11C]</text>
		</g>
	</g>
</g>
<g transform="translate(0, 320)">
	<rect x="50" y="2450" fill="none" stroke="#000000" width="150" height="20"/>
	<g transform="translate(5, 15)">
		<text transform="matrix(1 0 0 1 49.9998 2449.9995)" font-family="'Ubuntu'" font-size="12">th32moduleid</text>
	</g>
	<g transform="translate(5, 0)">
		<g transform="translate(150, 15)">
			<text transform="matrix(1 0 0 1 49.9998 2449.9995)" font-family="'Ubuntu'" font-size="12">[ebp -120]</text>
		</g>
	</g>
</g>
<g transform="translate(0, 340)">
	<rect x="50" y="2450" fill="none" stroke="#000000" width="150" height="20"/>
	<g transform="translate(5, 15)">
		<text transform="matrix(1 0 0 1 49.9998 2449.9995)" font-family="'Ubuntu'" font-size="12">th32defaultheapid</text>
	</g>
	<g transform="translate(5, 0)">
		<g transform="translate(150, 15)">
			<text transform="matrix(1 0 0 1 49.9998 2449.9995)" font-family="'Ubuntu'" font-size="12">[ebp -124]</text>
		</g>
	</g>
</g>
<g transform="translate(0, 360)">
	<rect x="50" y="2450" fill="none" stroke="#000000" width="150" height="20"/>
	<g transform="translate(5, 15)">
		<text transform="matrix(1 0 0 1 49.9998 2449.9995)" font-family="'Ubuntu'" font-size="12">th32processid</text>
	</g>
	<g transform="translate(5, 0)">
		<g transform="translate(150, 15)">
			<text transform="matrix(1 0 0 1 49.9998 2449.9995)" font-family="'Ubuntu'" font-size="12">[ebp -128]</text>
		</g>
	</g>
</g>
<g transform="translate(0, 380)">
	<rect x="50" y="2450" fill="none" stroke="#000000" width="150" height="20"/>
	<g transform="translate(5, 15)">
		<text transform="matrix(1 0 0 1 49.9998 2449.9995)" font-family="'Ubuntu'" font-size="12">cntusage</text>
	</g>
	<g transform="translate(5, 0)">
		<g transform="translate(150, 15)">
			<text transform="matrix(1 0 0 1 49.9998 2449.9995)" font-family="'Ubuntu'" font-size="12">[ebp -12C]</text>
		</g>
	</g>
</g>
<g transform="translate(0, 400)">
	<rect x="50" y="2450" fill="none" stroke="#000000" width="150" height="20"/>
	<g transform="translate(5, 15)">
		<text transform="matrix(1 0 0 1 49.9998 2449.9995)" font-family="'Ubuntu'" font-size="12">dwsize</text>
	</g>
	<g transform="translate(5, 0)">
		<g transform="translate(150, 15)">
			<text transform="matrix(1 0 0 1 49.9998 2449.9995)" font-family="'Ubuntu'" font-size="12">[ebp -130]</text>
		</g>
	</g>
</g>
<g transform="translate(0, 420)">
	<rect x="50" y="2450" fill="none" stroke="#000000" width="150" height="20"/>
	<g transform="translate(5, 15)">
		<text transform="matrix(1 0 0 1 49.9998 2449.9995)" font-family="'Ubuntu'" font-size="12">edi</text>
	</g>
	<g transform="translate(5, 0)">
		<g transform="translate(150, 15)">
			<text transform="matrix(1 0 0 1 49.9998 2449.9995)" font-family="'Ubuntu'" font-size="12">[ebp -134]</text>
		</g>
	</g>
</g>
<g transform="translate(-40, 420)">
	<text transform="matrix(1 0 0 1 49.9998 2464.9995)" font-family="'Ubuntu'" font-size="12">ESP</text>
	<path d="M82,2457l6,3l-6,3V2457z"/>
	<path d="M82,2460"/>
</g>
<g transform="translate(0, 3420)">
	<g transform="translate(10, 10)">
		<g transform="translate(40, 0)">
			<g transform="translate(-40, 440)">
			</g>
		</g>
	</g>
</g>
<g transform="translate(310, 3420)">
	<g transform="translate(10, 10)">
		<g transform="translate(40, 0)">
			<g transform="translate(-40, 460)">
			</g>
		</g>
	</g>
</g>
<g transform="translate(0, 3920)">
	<g transform="translate(10, 10)">
		<g transform="translate(40, 0)">
			<g transform="translate(-40, 480)">
			</g>
		</g>
	</g>
</g>
<g transform="translate(310, 3920)">
	<g transform="translate(10, 10)">
		<g transform="translate(40, 0)">
			<g transform="translate(-40, 440)">
			</g>
		</g>
	</g>
</g>
<g transform="translate(0, 4440)">
	<g transform="translate(10, 10)">
		<g transform="translate(40, 0)">
			<g transform="translate(-40, 460)">
			</g>
		</g>
	</g>
</g>
<g transform="translate(310, 4440)">
	<g transform="translate(10, 10)">
		<g transform="translate(40, 0)">
			<g transform="translate(-40, 480)">
			</g>
		</g>
	</g>
</g>
<g transform="translate(0, 4960)">
	<g transform="translate(10, 10)">
		<g transform="translate(40, 0)">
			<g transform="translate(-40, 440)">
			</g>
		</g>
	</g>
</g>
<g transform="translate(310, 4960)">
	<g transform="translate(10, 10)">
		<g transform="translate(40, 0)">
			<g transform="translate(-40, 460)">
			</g>
		</g>
	</g>
</g>
<g transform="translate(0, 5460)">
	<g transform="translate(10, 10)">
		<g transform="translate(40, 0)">
			<g transform="translate(-40, 480)">
			</g>
		</g>
	</g>
</g>
<g transform="translate(310, 5460)">
	<g transform="translate(10, 10)">
		<g transform="translate(40, 0)">
			<g transform="translate(-40, 440)">
			</g>
		</g>
	</g>
</g>
<g transform="translate(0, 5980)">
	<g transform="translate(10, 10)">
		<g transform="translate(40, 0)">
			<g transform="translate(-40, 460)">
			</g>
		</g>
	</g>
</g>
<g transform="translate(310, 5980)">
	<g transform="translate(10, 10)">
		<g transform="translate(40, 0)">
			<g transform="translate(-40, 480)">
			</g>
		</g>
	</g>
</g>
<g transform="translate(0, 6500)">
	<g transform="translate(10, 10)">
		<g transform="translate(40, 0)">
			<g transform="translate(-40, 440)">
			</g>
		</g>
	</g>
</g>
<g transform="translate(310, 6500)">
	<g transform="translate(10, 10)">
		<g transform="translate(40, 0)">
			<g transform="translate(-40, 420)">
			</g>
		</g>
	</g>
</g>
<g transform="translate(0, 6980)">
	<g transform="translate(10, 10)">
		<g transform="translate(40, 0)">
			<g transform="translate(-40, 440)">
			</g>
		</g>
	</g>
</g>
<g transform="translate(310, 6980)">
	<g transform="translate(10, 10)">
		<g transform="translate(40, 0)">
			<g transform="translate(-40, 460)">
			</g>
		</g>
	</g>
</g>
<g transform="translate(0, 7480)">
	<g transform="translate(10, 10)">
		<g transform="translate(40, 0)">
			<g transform="translate(-40, 480)">
			</g>
		</g>
	</g>
</g>
<g transform="translate(310, 7480)">
	<g transform="translate(10, 10)">
		<g transform="translate(40, 0)">
			<g transform="translate(-40, 500)">
			</g>
		</g>
	</g>
</g>
<g transform="translate(0, 8020)">
	<g transform="translate(10, 10)">
		<g transform="translate(40, 0)">
			<g transform="translate(-40, 520)">
			</g>
		</g>
	</g>
</g>
<g transform="translate(310, 8020)">
	<g transform="translate(10, 10)">
		<g transform="translate(40, 0)">
			<g transform="translate(-40, 540)">
			</g>
		</g>
	</g>
</g>
<g transform="translate(0, 8600)">
	<g transform="translate(10, 10)">
		<g transform="translate(40, 0)">
			<g transform="translate(-40, 420)">
			</g>
		</g>
	</g>
</g>
<g transform="translate(310, 8600)">
	<g transform="translate(10, 10)">
		<g transform="translate(40, 0)">
			<g transform="translate(-40, 400)">
			</g>
		</g>
	</g>
</g>
<g transform="translate(0, 9060)">
	<g transform="translate(10, 10)">
		<g transform="translate(40, 0)">
			<g transform="translate(0, 120)">
				<line fill="none" stroke="#000000" x1="150" y1="20" x2="0" y2="20"/>
			</g>
			<g transform="translate(-40, 120)">
			</g>
		</g>
	</g>
</g>
<g transform="translate(310, 9060)">
	<g transform="translate(10, 10)">
		<g transform="translate(40, 0)">
			<g transform="translate(-40, 100)">
			</g>
		</g>
	</g>
</g>
<g transform="translate(0, 9220)">
	<g transform="translate(10, 10)">
		<g transform="translate(40, 0)">
			<g transform="translate(0, 0)">
				<rect x="0" y="0" fill="none" stroke="#000000" width="150" height="40"/>
				<g transform="translate(5, 15)">
					<text transform="matrix(1 0 0 1 -2.441406e-004 -4.882813e-004)" font-family="'ArialMT'" font-size="12">98: retn 0Ch</text>
				</g>
			</g>
			<g transform="translate(0, 40)">
				<rect x="0" y="0" fill="none" stroke="#000000" width="150" height="20"/>
				<g transform="translate(5, 15)">
					<text transform="matrix(1 0 0 1 -2.441406e-004 -4.882813e-004)" font-family="'ArialMT'" font-size="12">lpvReserved</text>
				</g>
				<g transform="translate(5, 0)">
					<g transform="translate(150, 15)">
						<text transform="matrix(1 0 0 1 -2.441406e-004 -4.882813e-004)" font-family="'ArialMT'" font-size="12">[ebp +10]</text>
					</g>
				</g>
			</g>
			<g transform="translate(-40, 40)">
				<text transform="matrix(1 0 0 1 -2.441406e-004 14.9995)" font-family="'ArialMT'" font-size="12">ESP</text>
				<path d="M32,7l6,3l-6,3V7z"/>
				<path d="M32,10"/>
			</g>
		</g>
	</g>
</g>
<path fill="none" stroke="#000000" d="M50,2649.668V2630h150v14.001v5.667c0,0-8.167-4.667-8.667-4.668s-2.667,7.501-2.667,7.501
	l-10.833-6.667l-2.333,7.25l-14.167-3.417l-4.667,6.833l-16.5-4.833L136,2656.5l-7.167-5.333l-23,3l-16.833-3.5L71,2653
	l-11.333-3.333l-3,4.499L50,2649.668"/>
<path fill="none" stroke="#000000" d="M200,2670.168l-7.5-2.834l-6,5.833c0,0-3.666-5-5.333-5.833s-7,2.917-7,2.917
	s-5.334-4.752-6.167-5.251s-6,5.169-7.167,5.168s-16.167,0.167-16.833,0s-4.167,3.999-4.167,3.999l-13.333-3.999
	c0,0-4.5,6.5-5.5,6.166S105,2669,105,2669l-4.5,7.346l-14.333-8.012l-7,5.833c0,0-8-4-8.833-4.667s-9,3.167-9,3.167l-5.5-6.5
	l-1.667,6.167l-3.333,1.833"/>
</svg>
