<?xml version="1.0" encoding="utf-8"?>
<!-- Generator: Adobe Illustrator 16.0.0, SVG Export Plug-In . SVG Version: 6.00 Build 0)  -->
<!DOCTYPE svg PUBLIC "-//W3C//DTD SVG 1.1//EN" "http://www.w3.org/Graphics/SVG/1.1/DTD/svg11.dtd">
<svg version="1.1" id="Layer_1" xmlns="http://www.w3.org/2000/svg" xmlns:xlink="http://www.w3.org/1999/xlink" x="0px" y="0px"
	 width="620px" height="1147.485px" viewBox="0 1167 620 1147.485" enable-background="new 0 1167 620 1147.485"
	 xml:space="preserve">
<g transform="translate(0, 0)">
	<g transform="translate(10, 10)">
		<g transform="translate(40, 0)">
			<g transform="translate(-40, 40)">
				<path fill="none" d=""/>
			</g>
		</g>
	</g>
</g>
<g transform="translate(310, 0)">
	<g transform="translate(10, 10)">
		<g transform="translate(40, 0)">
			<g transform="translate(-40, 60)">
				<path fill="none" d=""/>
			</g>
		</g>
	</g>
</g>
<g transform="translate(0, 100)">
	<g transform="translate(10, 10)">
		<g transform="translate(40, 0)">
			<g transform="translate(-40, 80)">
				<path fill="none" d=""/>
			</g>
		</g>
	</g>
</g>
<g transform="translate(310, 100)">
	<g transform="translate(10, 10)">
		<g transform="translate(40, 0)">
			<g transform="translate(-40, 100)">
				<path fill="none" d=""/>
			</g>
		</g>
	</g>
</g>
<g transform="translate(0, 240)">
	<g transform="translate(10, 10)">
		<g transform="translate(40, 0)">
			<g transform="translate(-40, 100)">
				<path fill="none" d=""/>
			</g>
		</g>
	</g>
</g>
<g transform="translate(310, 240)">
	<g transform="translate(10, 10)">
		<g transform="translate(40, 0)">
			<g transform="translate(-40, 120)">
				<path fill="none" d=""/>
			</g>
		</g>
	</g>
</g>
<g transform="translate(0, 400)">
	<g transform="translate(10, 10)">
		<g transform="translate(40, 0)">
			<g transform="translate(-40, 120)">
				<path fill="none" d=""/>
			</g>
		</g>
	</g>
</g>
<g transform="translate(310, 400)">
	<g transform="translate(10, 10)">
		<g transform="translate(40, 0)">
			<g transform="translate(-40, 180)">
				<path fill="none" d=""/>
			</g>
		</g>
	</g>
</g>
<g transform="translate(0, 620)">
	<g transform="translate(10, 10)">
		<g transform="translate(40, 0)">
			<g transform="translate(-40, 200)">
				<path fill="none" d=""/>
			</g>
		</g>
	</g>
</g>
<g transform="translate(310, 620)">
	<g transform="translate(10, 10)">
		<g transform="translate(40, 0)">
			<g transform="translate(-40, 220)">
				<path fill="none" d=""/>
			</g>
		</g>
	</g>
</g>
<g transform="translate(0, 880)">
	<g transform="translate(10, 10)">
		<g transform="translate(40, 0)">
			<g transform="translate(-40, 240)">
				<path fill="none" d=""/>
			</g>
		</g>
	</g>
</g>
<g transform="translate(310, 880)">
	<g transform="translate(10, 10)">
		<g transform="translate(40, 0)">
			<g transform="translate(-40, 200)">
				<path fill="none" d=""/>
			</g>
		</g>
	</g>
</g>
<g transform="translate(0, 1160)">
	<g transform="translate(10, 10)">
		<g transform="translate(40, 0)">
			<g transform="translate(0, 0)">
				<polyline fill="none" stroke="#000000" points="150,0 150,40 0,40 0,0 				"/>
				<g transform="translate(5, 15)">
					<text transform="matrix(1 0 0 1 -2.441406e-004 0)" font-family="'Ubuntu-Medium'" font-size="12">37: push esi</text>
				</g>
			</g>
			<g transform="translate(0, 40)">
				<rect x="0" fill="none" stroke="#000000" width="150" height="20"/>
				<g transform="translate(5, 15)">
					<text transform="matrix(1 0 0 1 -2.441406e-004 0)" font-family="'Ubuntu'" font-size="12">lpvReserved</text>
				</g>
				<g transform="translate(5, 0)">
					<g transform="translate(150, 15)">
						<text transform="matrix(1 0 0 1 -2.441406e-004 0)" font-family="'Ubuntu'" font-size="12">[ebp +10]</text>
					</g>
				</g>
			</g>
			<g transform="translate(0, 60)">
				<rect x="0" fill="none" stroke="#000000" width="150" height="20"/>
				<g transform="translate(5, 15)">
					<text transform="matrix(1 0 0 1 -2.441406e-004 0)" font-family="'Ubuntu'" font-size="12">fdwReason</text>
				</g>
				<g transform="translate(5, 0)">
					<g transform="translate(150, 15)">
						<text transform="matrix(1 0 0 1 -2.441406e-004 0)" font-family="'Ubuntu'" font-size="12">[ebp +C]</text>
					</g>
				</g>
			</g>
			<g transform="translate(0, 80)">
				<rect x="0" fill="none" stroke="#000000" width="150" height="20"/>
				<g transform="translate(5, 15)">
					<text transform="matrix(1 0 0 1 -2.441406e-004 0)" font-family="'Ubuntu'" font-size="12">hinstDLL</text>
				</g>
				<g transform="translate(5, 0)">
					<g transform="translate(150, 15)">
						<text transform="matrix(1 0 0 1 -2.441406e-004 0)" font-family="'Ubuntu'" font-size="12">[ebp +8]</text>
					</g>
				</g>
			</g>
			<g transform="translate(0, 100)">
				<rect x="0" fill="none" stroke="#000000" width="150" height="20"/>
				<g transform="translate(5, 15)">
					<text transform="matrix(1 0 0 1 -2.441406e-004 0)" font-family="'Ubuntu'" font-size="12">eip</text>
				</g>
				<g transform="translate(5, 0)">
					<g transform="translate(150, 15)">
						<text transform="matrix(1 0 0 1 -2.441406e-004 0)" font-family="'Ubuntu'" font-size="12">[ebp +4]</text>
					</g>
				</g>
			</g>
			<g transform="translate(0, 120)">
				<rect x="0" fill="none" stroke="#000000" width="150" height="20"/>
				<g transform="translate(5, 15)">
					<text transform="matrix(1 0 0 1 -2.441406e-004 0)" font-family="'Ubuntu'" font-size="12">ebp</text>
				</g>
				<g transform="translate(5, 0)">
					<g transform="translate(150, 15)">
						<text transform="matrix(1 0 0 1 -2.441406e-004 0)" font-family="'Ubuntu'" font-size="12">EBP</text>
					</g>
				</g>
			</g>
			<g transform="translate(0, 140)">
				<rect x="0" fill="none" stroke="#000000" width="150" height="20"/>
				<g transform="translate(5, 15)">
				</g>
				<g transform="translate(5, 0)">
					<g transform="translate(150, 15)">
						<text transform="matrix(1 0 0 1 -2.441406e-004 0)" font-family="'Ubuntu'" font-size="12">[ebp -4]</text>
					</g>
				</g>
			</g>
			<g transform="translate(0, 160)">
				<rect x="0" fill="none" stroke="#000000" width="150" height="20"/>
				<g transform="translate(5, 15)">
					<text transform="matrix(1 0 0 1 -2.441406e-004 0)" font-family="'Ubuntu'" font-size="12">(...)</text>
				</g>
				<g transform="translate(5, 0)">
					<g transform="translate(150, 15)">
						<text transform="matrix(1 0 0 1 -2.441406e-004 0)" font-family="'Ubuntu'" font-size="12">(...)</text>
					</g>
				</g>
			</g>
			<g transform="translate(0, 180)">
				<rect x="0" fill="none" stroke="#000000" width="150" height="20"/>
				<g transform="translate(5, 15)">
				</g>
				<g transform="translate(5, 0)">
					<g transform="translate(150, 15)">
						<text transform="matrix(1 0 0 1 -2.441406e-004 0)" font-family="'Ubuntu'" font-size="12">[ebp -130]</text>
					</g>
				</g>
			</g>
			<g transform="translate(0, 200)">
				<rect x="0" fill="none" stroke="#000000" width="150" height="20"/>
				<g transform="translate(5, 15)">
					<text transform="matrix(1 0 0 1 -2.441406e-004 0)" font-family="'Ubuntu'" font-size="12">edi</text>
				</g>
				<g transform="translate(5, 0)">
					<g transform="translate(150, 15)">
						<text transform="matrix(1 0 0 1 -2.441406e-004 0)" font-family="'Ubuntu'" font-size="12">[ebp -134]</text>
					</g>
				</g>
			</g>
			<g transform="translate(0, 220)">
				<rect x="0" fill="none" stroke="#000000" width="150" height="20"/>
				<g transform="translate(5, 15)">
					<text transform="matrix(1 0 0 1 -2.441406e-004 0)" font-family="'Ubuntu'" font-size="12">esi</text>
				</g>
				<g transform="translate(5, 0)">
					<g transform="translate(150, 15)">
						<text transform="matrix(1 0 0 1 -2.441406e-004 0)" font-family="'Ubuntu'" font-size="12">[ebp -138]</text>
					</g>
				</g>
			</g>
			<g transform="translate(-40, 220)">
				<text transform="matrix(1 0 0 1 -2.441406e-004 15)" font-family="'Ubuntu'" font-size="12">ESP</text>
				<path fill="none" d=""/>
				<path d="M32,7l6,3l-6,3V7z"/>
				<path d="M32,10"/>
			</g>
		</g>
	</g>
</g>
<g transform="translate(310, 1160)">
	<g transform="translate(10, 10)">
		<g transform="translate(40, 0)">
			<g transform="translate(0, 0)">
				<polyline fill="none" stroke="#000000" points="150,0 150,40 0,40 0,0 				"/>
				<g transform="translate(5, 15)">
					<text transform="matrix(1 0 0 1 2.441406e-004 0)" font-family="'Ubuntu-Medium'" font-size="12">38: push eax</text>
				</g>
			</g>
			<g transform="translate(0, 40)">
				<rect x="0" fill="none" stroke="#000000" width="150" height="20"/>
				<g transform="translate(5, 15)">
					<text transform="matrix(1 0 0 1 2.441406e-004 0)" font-family="'Ubuntu'" font-size="12">lpvReserved</text>
				</g>
				<g transform="translate(5, 0)">
					<g transform="translate(150, 15)">
						<text transform="matrix(1 0 0 1 2.441406e-004 0)" font-family="'Ubuntu'" font-size="12">[ebp +10]</text>
					</g>
				</g>
			</g>
			<g transform="translate(0, 60)">
				<rect x="0" fill="none" stroke="#000000" width="150" height="20"/>
				<g transform="translate(5, 15)">
					<text transform="matrix(1 0 0 1 2.441406e-004 0)" font-family="'Ubuntu'" font-size="12">fdwReason</text>
				</g>
				<g transform="translate(5, 0)">
					<g transform="translate(150, 15)">
						<text transform="matrix(1 0 0 1 2.441406e-004 0)" font-family="'Ubuntu'" font-size="12">[ebp +C]</text>
					</g>
				</g>
			</g>
			<g transform="translate(0, 80)">
				<rect x="0" fill="none" stroke="#000000" width="150" height="20"/>
				<g transform="translate(5, 15)">
					<text transform="matrix(1 0 0 1 2.441406e-004 0)" font-family="'Ubuntu'" font-size="12">hinstDLL</text>
				</g>
				<g transform="translate(5, 0)">
					<g transform="translate(150, 15)">
						<text transform="matrix(1 0 0 1 2.441406e-004 0)" font-family="'Ubuntu'" font-size="12">[ebp +8]</text>
					</g>
				</g>
			</g>
			<g transform="translate(0, 100)">
				<rect x="0" fill="none" stroke="#000000" width="150" height="20"/>
				<g transform="translate(5, 15)">
					<text transform="matrix(1 0 0 1 2.441406e-004 0)" font-family="'Ubuntu'" font-size="12">eip</text>
				</g>
				<g transform="translate(5, 0)">
					<g transform="translate(150, 15)">
						<text transform="matrix(1 0 0 1 2.441406e-004 0)" font-family="'Ubuntu'" font-size="12">[ebp +4]</text>
					</g>
				</g>
			</g>
			<g transform="translate(0, 120)">
				<rect x="0" fill="none" stroke="#000000" width="150" height="20"/>
				<g transform="translate(5, 15)">
					<text transform="matrix(1 0 0 1 2.441406e-004 0)" font-family="'Ubuntu'" font-size="12">ebp</text>
				</g>
				<g transform="translate(5, 0)">
					<g transform="translate(150, 15)">
						<text transform="matrix(1 0 0 1 2.441406e-004 0)" font-family="'Ubuntu'" font-size="12">EBP</text>
					</g>
				</g>
			</g>
			<g transform="translate(0, 140)">
				<rect x="0" fill="none" stroke="#000000" width="150" height="20"/>
				<g transform="translate(5, 15)">
				</g>
				<g transform="translate(5, 0)">
					<g transform="translate(150, 15)">
						<text transform="matrix(1 0 0 1 2.441406e-004 0)" font-family="'Ubuntu'" font-size="12">[ebp -4]</text>
					</g>
				</g>
			</g>
			<g transform="translate(0, 160)">
				<rect x="0" fill="none" stroke="#000000" width="150" height="20"/>
				<g transform="translate(5, 15)">
					<text transform="matrix(1 0 0 1 2.441406e-004 0)" font-family="'Ubuntu'" font-size="12">(...)</text>
				</g>
				<g transform="translate(5, 0)">
					<g transform="translate(150, 15)">
						<text transform="matrix(1 0 0 1 2.441406e-004 0)" font-family="'ArialMT'" font-size="12">(...)</text>
					</g>
				</g>
			</g>
			<g transform="translate(0, 180)">
				<rect x="0" fill="none" stroke="#000000" width="150" height="20"/>
				<g transform="translate(5, 15)">
				</g>
				<g transform="translate(5, 0)">
					<g transform="translate(150, 15)">
						<text transform="matrix(1 0 0 1 2.441406e-004 0)" font-family="'Ubuntu'" font-size="12">[ebp -130]</text>
					</g>
				</g>
			</g>
			<g transform="translate(0, 200)">
				<rect x="0" fill="none" stroke="#000000" width="150" height="20"/>
				<g transform="translate(5, 15)">
					<text transform="matrix(1 0 0 1 2.441406e-004 0)" font-family="'Ubuntu'" font-size="12">edi</text>
				</g>
				<g transform="translate(5, 0)">
					<g transform="translate(150, 15)">
						<text transform="matrix(1 0 0 1 2.441406e-004 0)" font-family="'Ubuntu'" font-size="12">[ebp -134]</text>
					</g>
				</g>
			</g>
			<g transform="translate(0, 220)">
				<rect x="0" fill="none" stroke="#000000" width="150" height="20"/>
				<g transform="translate(5, 15)">
					<text transform="matrix(1 0 0 1 2.441406e-004 0)" font-family="'Ubuntu'" font-size="12">esi</text>
				</g>
				<g transform="translate(5, 0)">
					<g transform="translate(150, 15)">
						<text transform="matrix(1 0 0 1 2.441406e-004 0)" font-family="'Ubuntu'" font-size="12">[ebp -138]</text>
					</g>
				</g>
			</g>
			<g transform="translate(0, 240)">
				<rect x="0" fill="none" stroke="#000000" width="150" height="20"/>
				<g transform="translate(5, 15)">
					<text transform="matrix(1 0 0 1 2.441406e-004 0)" font-family="'Ubuntu'" font-size="12">eax</text>
				</g>
				<g transform="translate(5, 0)">
					<g transform="translate(150, 15)">
						<text transform="matrix(1 0 0 1 2.441406e-004 0)" font-family="'Ubuntu'" font-size="12">[ebp -13C]</text>
					</g>
				</g>
			</g>
			<g transform="translate(-40, 240)">
				<text transform="matrix(1 0 0 1 2.441406e-004 15)" font-family="'ArialMT'" font-size="12">ESP</text>
				<path fill="none" d=""/>
				<path d="M32,7l6,3l-6,3V7z"/>
				<path d="M32,10"/>
			</g>
		</g>
	</g>
</g>
<g transform="translate(0, 1440)">
	<g transform="translate(10, 10)">
		<g transform="translate(40, 0)">
			<g transform="translate(0, 0)">
				<polyline fill="none" stroke="#000000" points="150,0 150,40 0,40 0,0 				"/>
				<g transform="translate(5, 15)">
					<text transform="matrix(1 0 0 1 -2.441406e-004 0)" font-family="'Ubuntu-Medium'" font-size="12">39: push edi</text>
				</g>
			</g>
			<g transform="translate(0, 40)">
				<rect x="0" fill="none" stroke="#000000" width="150" height="20"/>
				<g transform="translate(5, 15)">
					<text transform="matrix(1 0 0 1 -2.441406e-004 0)" font-family="'ArialMT'" font-size="12">lpvReserved</text>
				</g>
				<g transform="translate(5, 0)">
					<g transform="translate(150, 15)">
						<text transform="matrix(1 0 0 1 -2.441406e-004 0)" font-family="'Ubuntu'" font-size="12">[ebp +10]</text>
					</g>
				</g>
			</g>
			<g transform="translate(0, 60)">
				<rect x="0" fill="none" stroke="#000000" width="150" height="20"/>
				<g transform="translate(5, 15)">
					<text transform="matrix(1 0 0 1 -2.441406e-004 0)" font-family="'ArialMT'" font-size="12">fdwReason</text>
				</g>
				<g transform="translate(5, 0)">
					<g transform="translate(150, 15)">
						<text transform="matrix(1 0 0 1 -2.441406e-004 0)" font-family="'Ubuntu'" font-size="12">[ebp +C]</text>
					</g>
				</g>
			</g>
			<g transform="translate(0, 80)">
				<rect x="0" fill="none" stroke="#000000" width="150" height="20"/>
				<g transform="translate(5, 15)">
					<text transform="matrix(1 0 0 1 -2.441406e-004 0)" font-family="'ArialMT'" font-size="12">hinstDLL</text>
				</g>
				<g transform="translate(5, 0)">
					<g transform="translate(150, 15)">
						<text transform="matrix(1 0 0 1 -2.441406e-004 0)" font-family="'Ubuntu'" font-size="12">[ebp +8]</text>
					</g>
				</g>
			</g>
			<g transform="translate(0, 100)">
				<rect x="0" fill="none" stroke="#000000" width="150" height="20"/>
				<g transform="translate(5, 15)">
					<text transform="matrix(1 0 0 1 -2.441406e-004 0)" font-family="'ArialMT'" font-size="12">eip</text>
				</g>
				<g transform="translate(5, 0)">
					<g transform="translate(150, 15)">
						<text transform="matrix(1 0 0 1 -2.441406e-004 0)" font-family="'Ubuntu'" font-size="12">[ebp +4]</text>
					</g>
				</g>
			</g>
			<g transform="translate(0, 120)">
				<rect x="0" fill="none" stroke="#000000" width="150" height="20"/>
				<g transform="translate(5, 15)">
					<text transform="matrix(1 0 0 1 -2.441406e-004 0)" font-family="'ArialMT'" font-size="12">ebp</text>
				</g>
				<g transform="translate(5, 0)">
					<g transform="translate(150, 15)">
						<text transform="matrix(1 0 0 1 -2.441406e-004 0)" font-family="'Ubuntu'" font-size="12">EBP</text>
					</g>
				</g>
			</g>
			<g transform="translate(0, 140)">
				<rect x="0" fill="none" stroke="#000000" width="150" height="20"/>
				<g transform="translate(5, 15)">
				</g>
				<g transform="translate(5, 0)">
					<g transform="translate(150, 15)">
						<text transform="matrix(1 0 0 1 -2.441406e-004 0)" font-family="'Ubuntu'" font-size="12">[ebp -4]</text>
					</g>
				</g>
			</g>
			<g transform="translate(0, 160)">
				<rect x="0" fill="none" stroke="#000000" width="150" height="20"/>
				<g transform="translate(5, 15)">
					<text transform="matrix(1 0 0 1 -2.441406e-004 0)" font-family="'ArialMT'" font-size="12">(...)</text>
				</g>
				<g transform="translate(5, 0)">
					<g transform="translate(150, 15)">
						<text transform="matrix(1 0 0 1 -2.441406e-004 0)" font-family="'Ubuntu'" font-size="12">(...)</text>
					</g>
				</g>
			</g>
			<g transform="translate(0, 180)">
				<rect x="0" fill="none" stroke="#000000" width="150" height="20"/>
				<g transform="translate(5, 15)">
				</g>
				<g transform="translate(5, 0)">
					<g transform="translate(150, 15)">
						<text transform="matrix(1 0 0 1 -2.441406e-004 0)" font-family="'Ubuntu'" font-size="12">[ebp -130]</text>
					</g>
				</g>
			</g>
			<g transform="translate(0, 200)">
				<rect x="0" fill="none" stroke="#000000" width="150" height="20"/>
				<g transform="translate(5, 15)">
					<text transform="matrix(1 0 0 1 -2.441406e-004 0)" font-family="'ArialMT'" font-size="12">edi</text>
				</g>
				<g transform="translate(5, 0)">
					<g transform="translate(150, 15)">
						<text transform="matrix(1 0 0 1 -2.441406e-004 0)" font-family="'Ubuntu'" font-size="12">[ebp -134]</text>
					</g>
				</g>
			</g>
			<g transform="translate(0, 220)">
				<rect x="0" fill="none" stroke="#000000" width="150" height="20"/>
				<g transform="translate(5, 15)">
					<text transform="matrix(1 0 0 1 -2.441406e-004 0)" font-family="'ArialMT'" font-size="12">esi</text>
				</g>
				<g transform="translate(5, 0)">
					<g transform="translate(150, 15)">
						<text transform="matrix(1 0 0 1 -2.441406e-004 0)" font-family="'Ubuntu'" font-size="12">[ebp -138]</text>
					</g>
				</g>
			</g>
			<g transform="translate(0, 240)">
				<rect x="0" fill="none" stroke="#000000" width="150" height="20"/>
				<g transform="translate(5, 15)">
					<text transform="matrix(1 0 0 1 -2.441406e-004 0)" font-family="'ArialMT'" font-size="12">eax</text>
				</g>
				<g transform="translate(5, 0)">
					<g transform="translate(150, 15)">
						<text transform="matrix(1 0 0 1 -2.441406e-004 0)" font-family="'Ubuntu'" font-size="12">[ebp -13C]</text>
					</g>
				</g>
			</g>
			<g transform="translate(0, 260)">
				<rect x="0" fill="none" stroke="#000000" width="150" height="20"/>
				<g transform="translate(5, 15)">
					<text transform="matrix(1 0 0 1 -2.441406e-004 0)" font-family="'ArialMT'" font-size="12">edi</text>
				</g>
				<g transform="translate(5, 0)">
					<g transform="translate(150, 15)">
						<text transform="matrix(1 0 0 1 -2.441406e-004 0)" font-family="'Ubuntu'" font-size="12">[ebp -140]</text>
					</g>
				</g>
			</g>
			<g transform="translate(-40, 260)">
				<text transform="matrix(1 0 0 1 -2.441406e-004 15)" font-family="'ArialMT'" font-size="12">ESP</text>
				<path fill="none" d=""/>
				<path d="M32,7l6,3l-6,3V7z"/>
				<path d="M32,10"/>
			</g>
		</g>
	</g>
</g>
<g transform="translate(310, 1440)">
	<g transform="translate(10, 10)">
		<g transform="translate(40, 0)">
			<g transform="translate(0, 0)">
				<polyline fill="none" stroke="#000000" points="150,0 150,40 0,40 0,0 				"/>
				<g transform="translate(5, 15)">
					<text transform="matrix(1 0 0 1 2.441406e-004 0)" font-family="'Ubuntu-Medium'" font-size="12">41: call Process32First</text>
				</g>
			</g>
			<g transform="translate(0, 40)">
				<rect x="0" fill="none" stroke="#000000" width="150" height="20"/>
				<g transform="translate(5, 15)">
					<text transform="matrix(1 0 0 1 2.441406e-004 0)" font-family="'ArialMT'" font-size="12">lpvReserved</text>
				</g>
				<g transform="translate(5, 0)">
					<g transform="translate(150, 15)">
						<text transform="matrix(1 0 0 1 2.441406e-004 0)" font-family="'Ubuntu'" font-size="12">[ebp +10]</text>
					</g>
				</g>
			</g>
			<g transform="translate(0, 60)">
				<rect x="0" fill="none" stroke="#000000" width="150" height="20"/>
				<g transform="translate(5, 15)">
					<text transform="matrix(1 0 0 1 2.441406e-004 0)" font-family="'ArialMT'" font-size="12">fdwReason</text>
				</g>
				<g transform="translate(5, 0)">
					<g transform="translate(150, 15)">
						<text transform="matrix(1 0 0 1 2.441406e-004 0)" font-family="'Ubuntu'" font-size="12">[ebp +C]</text>
					</g>
				</g>
			</g>
			<g transform="translate(0, 80)">
				<rect x="0" fill="none" stroke="#000000" width="150" height="20"/>
				<g transform="translate(5, 15)">
					<text transform="matrix(1 0 0 1 2.441406e-004 0)" font-family="'ArialMT'" font-size="12">hinstDLL</text>
				</g>
				<g transform="translate(5, 0)">
					<g transform="translate(150, 15)">
						<text transform="matrix(1 0 0 1 2.441406e-004 0)" font-family="'Ubuntu'" font-size="12">[ebp +8]</text>
					</g>
				</g>
			</g>
			<g transform="translate(0, 100)">
				<rect x="0" fill="none" stroke="#000000" width="150" height="20"/>
				<g transform="translate(5, 15)">
					<text transform="matrix(1 0 0 1 2.441406e-004 0)" font-family="'ArialMT'" font-size="12">eip</text>
				</g>
				<g transform="translate(5, 0)">
					<g transform="translate(150, 15)">
						<text transform="matrix(1 0 0 1 2.441406e-004 0)" font-family="'Ubuntu'" font-size="12">[ebp +4]</text>
					</g>
				</g>
			</g>
			<g transform="translate(0, 120)">
				<rect x="0" fill="none" stroke="#000000" width="150" height="20"/>
				<g transform="translate(5, 15)">
					<text transform="matrix(1 0 0 1 2.441406e-004 0)" font-family="'ArialMT'" font-size="12">ebp</text>
				</g>
				<g transform="translate(5, 0)">
					<g transform="translate(150, 15)">
						<text transform="matrix(1 0 0 1 2.441406e-004 0)" font-family="'Ubuntu'" font-size="12">EBP</text>
					</g>
				</g>
			</g>
			<g transform="translate(0, 140)">
				<rect x="0" fill="none" stroke="#000000" width="150" height="20"/>
				<g transform="translate(5, 15)">
				</g>
				<g transform="translate(5, 0)">
					<g transform="translate(150, 15)">
						<text transform="matrix(1 0 0 1 2.441406e-004 0)" font-family="'Ubuntu'" font-size="12">[ebp -4]</text>
					</g>
				</g>
			</g>
			<g transform="translate(0, 160)">
				<rect x="0" fill="none" stroke="#000000" width="150" height="20"/>
				<g transform="translate(5, 15)">
					<text transform="matrix(1 0 0 1 2.441406e-004 0)" font-family="'ArialMT'" font-size="12">(...)</text>
				</g>
				<g transform="translate(5, 0)">
					<g transform="translate(150, 15)">
						<text transform="matrix(1 0 0 1 2.441406e-004 0)" font-family="'ArialMT'" font-size="12">(...)</text>
					</g>
				</g>
			</g>
			<g transform="translate(0, 180)">
				<rect x="0" fill="none" stroke="#000000" width="150" height="20"/>
				<g transform="translate(5, 15)">
				</g>
				<g transform="translate(5, 0)">
					<g transform="translate(150, 15)">
						<text transform="matrix(1 0 0 1 2.441406e-004 0)" font-family="'Ubuntu'" font-size="12">[ebp -130]</text>
					</g>
				</g>
			</g>
			<g transform="translate(0, 200)">
				<rect x="0" fill="none" stroke="#000000" width="150" height="20"/>
				<g transform="translate(5, 15)">
					<text transform="matrix(1 0 0 1 2.441406e-004 0)" font-family="'ArialMT'" font-size="12">edi</text>
				</g>
				<g transform="translate(5, 0)">
					<g transform="translate(150, 15)">
						<text transform="matrix(1 0 0 1 2.441406e-004 0)" font-family="'Ubuntu'" font-size="12">[ebp -134]</text>
					</g>
				</g>
			</g>
			<g transform="translate(0, 220)">
				<rect x="0" fill="none" stroke="#000000" width="150" height="20"/>
				<g transform="translate(5, 15)">
					<text transform="matrix(1 0 0 1 2.441406e-004 0)" font-family="'ArialMT'" font-size="12">esi</text>
				</g>
				<g transform="translate(5, 0)">
					<g transform="translate(150, 15)">
						<text transform="matrix(1 0 0 1 2.441406e-004 0)" font-family="'Ubuntu'" font-size="12">[ebp -138]</text>
					</g>
				</g>
			</g>
			<g transform="translate(-40, 220)">
				<text transform="matrix(1 0 0 1 2.441406e-004 15)" font-family="'ArialMT'" font-size="12">ESP</text>
				<path fill="none" d=""/>
				<path d="M32,7l6,3l-6,3V7z"/>
				<path d="M32,10"/>
			</g>
		</g>
	</g>
</g>
<g transform="translate(0, 1740)">
	<g transform="translate(10, 10)">
		<g transform="translate(40, 0)">
			<g transform="translate(0, 0)">
				<polyline fill="none" stroke="#000000" points="150,0 150,40 0,40 0,0 				"/>
				<g transform="translate(5, 15)">
					<text transform="matrix(1 0 0 1 -2.441406e-004 -0.3335)" font-family="'Ubuntu-Medium'" font-size="12">46: push 100075C50h</text>
				</g>
			</g>
			<g transform="translate(0, 40)">
				<rect x="0" fill="none" stroke="#000000" width="150" height="20"/>
				<g transform="translate(5, 15)">
					<text transform="matrix(1 0 0 1 -2.441406e-004 -0.667)" font-family="'Ubuntu'" font-size="12">lpvReserved</text>
				</g>
				<g transform="translate(5, 0)">
					<g transform="translate(150, 15)">
						<text transform="matrix(1 0 0 1 -2.441406e-004 0)" font-family="'Ubuntu'" font-size="12">[ebp +10]</text>
					</g>
				</g>
			</g>
			<g transform="translate(0, 60)">
				<rect x="0" fill="none" stroke="#000000" width="150" height="20"/>
				<g transform="translate(5, 15)">
					<text transform="matrix(1 0 0 1 -2.441406e-004 -0.667)" font-family="'Ubuntu'" font-size="12">fdwReason</text>
				</g>
				<g transform="translate(5, 0)">
					<g transform="translate(150, 15)">
						<text transform="matrix(1 0 0 1 -2.441406e-004 0)" font-family="'Ubuntu'" font-size="12">[ebp +C]</text>
					</g>
				</g>
			</g>
			<g transform="translate(0, 80)">
				<rect x="0" fill="none" stroke="#000000" width="150" height="20"/>
				<g transform="translate(5, 15)">
					<text transform="matrix(1 0 0 1 -2.441406e-004 -0.667)" font-family="'Ubuntu'" font-size="12">hinstDLL</text>
				</g>
				<g transform="translate(5, 0)">
					<g transform="translate(150, 15)">
						<text transform="matrix(1 0 0 1 -2.441406e-004 0)" font-family="'Ubuntu'" font-size="12">[ebp +8]</text>
					</g>
				</g>
			</g>
			<g transform="translate(0, 100)">
				<rect x="0" fill="none" stroke="#000000" width="150" height="20"/>
				<g transform="translate(5, 15)">
					<text transform="matrix(1 0 0 1 -2.441406e-004 -0.667)" font-family="'Ubuntu'" font-size="12">eip</text>
				</g>
				<g transform="translate(5, 0)">
					<g transform="translate(150, 15)">
						<text transform="matrix(1 0 0 1 -2.441406e-004 0)" font-family="'Ubuntu'" font-size="12">[ebp +4]</text>
					</g>
				</g>
			</g>
			<g transform="translate(0, 120)">
				<rect x="0" fill="none" stroke="#000000" width="150" height="20"/>
				<g transform="translate(5, 15)">
					<text transform="matrix(1 0 0 1 -2.441406e-004 -0.667)" font-family="'Ubuntu'" font-size="12">ebp</text>
				</g>
				<g transform="translate(5, 0)">
					<g transform="translate(150, 15)">
						<text transform="matrix(1 0 0 1 -2.441406e-004 0)" font-family="'Ubuntu'" font-size="12">EBP</text>
					</g>
				</g>
			</g>
			<g transform="translate(0, 140)">
				<rect x="0" fill="none" stroke="#000000" width="150" height="20"/>
				<g transform="translate(5, 15)">
				</g>
				<g transform="translate(5, 0)">
					<g transform="translate(150, 15)">
						<text transform="matrix(1 0 0 1 -2.441406e-004 0)" font-family="'Ubuntu'" font-size="12">[ebp -4]</text>
					</g>
				</g>
			</g>
			<g transform="translate(0, 160)">
				<rect x="0" fill="none" stroke="#000000" width="150" height="20"/>
				<g transform="translate(5, 15)">
					<text transform="matrix(1 0 0 1 -2.441406e-004 -0.667)" font-family="'Ubuntu'" font-size="12">(...)</text>
				</g>
				<g transform="translate(5, 0)">
					<g transform="translate(150, 15)">
						<text transform="matrix(1 0 0 1 -2.441406e-004 0)" font-family="'Ubuntu'" font-size="12">(...)</text>
					</g>
				</g>
			</g>
			<g transform="translate(0, 180)">
				<rect x="0" fill="none" stroke="#000000" width="150" height="20"/>
				<g transform="translate(5, 15)">
				</g>
				<g transform="translate(5, 0)">
					<g transform="translate(150, 15)">
						<text transform="matrix(1 0 0 1 -2.441406e-004 0)" font-family="'Ubuntu'" font-size="12">[ebp -130]</text>
					</g>
				</g>
			</g>
			<g transform="translate(0, 200)">
				<rect x="0" fill="none" stroke="#000000" width="150" height="20"/>
				<g transform="translate(5, 15)">
					<text transform="matrix(1 0 0 1 -2.441406e-004 -0.667)" font-family="'Ubuntu'" font-size="12">edi</text>
				</g>
				<g transform="translate(5, 0)">
					<g transform="translate(150, 15)">
						<text transform="matrix(1 0 0 1 -2.441406e-004 0)" font-family="'Ubuntu'" font-size="12">[ebp -134]</text>
					</g>
				</g>
			</g>
			<g transform="translate(0, 220)">
				<rect x="0" fill="none" stroke="#000000" width="150" height="20"/>
				<g transform="translate(5, 15)">
					<text transform="matrix(1 0 0 1 -2.441406e-004 -0.667)" font-family="'Ubuntu'" font-size="12">esi</text>
				</g>
				<g transform="translate(5, 0)">
					<g transform="translate(150, 15)">
						<text transform="matrix(1 0 0 1 -2.441406e-004 0)" font-family="'Ubuntu'" font-size="12">[ebp -138]</text>
					</g>
				</g>
			</g>
			<g transform="translate(0, 240)">
				<rect x="0" fill="none" stroke="#000000" width="150" height="20"/>
				<g transform="translate(5, 15)">
					<text transform="matrix(1 0 0 1 -2.441406e-004 -0.667)" font-family="'Ubuntu'" font-size="12">100075C50h</text>
				</g>
				<g transform="translate(5, 0)">
					<g transform="translate(150, 15)">
						<text transform="matrix(1 0 0 1 -2.441406e-004 0)" font-family="'Ubuntu'" font-size="12">[ebp -13C]</text>
					</g>
				</g>
			</g>
			<g transform="translate(-40, 240)">
				<text transform="matrix(1 0 0 1 -2.441406e-004 14.333)" font-family="'Ubuntu'" font-size="12">ESP</text>
				<path fill="none" d=""/>
				<path d="M32,7l6,3l-6,3V7z"/>
				<path d="M32,10"/>
			</g>
		</g>
	</g>
</g>
<g transform="translate(310, 1740)">
	<g transform="translate(10, 10)">
		<g transform="translate(40, 0)">
			<g transform="translate(0, 0)">
				<polyline fill="none" stroke="#000000" points="150,0 150,40 0,40 0,0 				"/>
				<g transform="translate(5, 15)">
					<text transform="matrix(1 0 0 1 2.441406e-004 0.3335)" font-family="'Ubuntu-Medium'" font-size="12">47: push ecx</text>
				</g>
			</g>
			<g transform="translate(0, 40)">
				<rect x="0" fill="none" stroke="#000000" width="150" height="20"/>
				<g transform="translate(5, 15)">
					<text transform="matrix(1 0 0 1 2.441406e-004 0)" font-family="'Ubuntu'" font-size="12">lpvReserved</text>
				</g>
				<g transform="translate(5, 0)">
					<g transform="translate(150, 15)">
						<text transform="matrix(1 0 0 1 2.441406e-004 0)" font-family="'Ubuntu'" font-size="12">[ebp +10]</text>
					</g>
				</g>
			</g>
			<g transform="translate(0, 60)">
				<rect x="0" fill="none" stroke="#000000" width="150" height="20"/>
				<g transform="translate(5, 15)">
					<text transform="matrix(1 0 0 1 2.441406e-004 0)" font-family="'Ubuntu'" font-size="12">fdwReason</text>
				</g>
				<g transform="translate(5, 0)">
					<g transform="translate(150, 15)">
						<text transform="matrix(1 0 0 1 2.441406e-004 0)" font-family="'Ubuntu'" font-size="12">[ebp +C]</text>
					</g>
				</g>
			</g>
			<g transform="translate(0, 80)">
				<rect x="0" fill="none" stroke="#000000" width="150" height="20"/>
				<g transform="translate(5, 15)">
					<text transform="matrix(1 0 0 1 2.441406e-004 0)" font-family="'Ubuntu'" font-size="12">hinstDLL</text>
				</g>
				<g transform="translate(5, 0)">
					<g transform="translate(150, 15)">
						<text transform="matrix(1 0 0 1 2.441406e-004 0)" font-family="'Ubuntu'" font-size="12">[ebp +8]</text>
					</g>
				</g>
			</g>
			<g transform="translate(0, 100)">
				<rect x="0" fill="none" stroke="#000000" width="150" height="20"/>
				<g transform="translate(5, 15)">
					<text transform="matrix(1 0 0 1 2.441406e-004 0)" font-family="'Ubuntu'" font-size="12">eip</text>
				</g>
				<g transform="translate(5, 0)">
					<g transform="translate(150, 15)">
						<text transform="matrix(1 0 0 1 2.441406e-004 0)" font-family="'Ubuntu'" font-size="12">[ebp +4]</text>
					</g>
				</g>
			</g>
			<g transform="translate(0, 120)">
				<rect x="0" fill="none" stroke="#000000" width="150" height="20"/>
				<g transform="translate(5, 15)">
					<text transform="matrix(1 0 0 1 2.441406e-004 0)" font-family="'Ubuntu'" font-size="12">ebp</text>
				</g>
				<g transform="translate(5, 0)">
					<g transform="translate(150, 15)">
						<text transform="matrix(1 0 0 1 2.441406e-004 0)" font-family="'Ubuntu'" font-size="12">EBP</text>
					</g>
				</g>
			</g>
			<g transform="translate(0, 140)">
				<rect x="0" fill="none" stroke="#000000" width="150" height="20"/>
				<g transform="translate(5, 15)">
				</g>
				<g transform="translate(5, 0)">
					<g transform="translate(150, 15)">
						<text transform="matrix(1 0 0 1 2.441406e-004 0)" font-family="'Ubuntu'" font-size="12">[ebp -4]</text>
					</g>
				</g>
			</g>
			<g transform="translate(0, 160)">
				<rect x="0" fill="none" stroke="#000000" width="150" height="20"/>
				<g transform="translate(5, 15)">
					<text transform="matrix(1 0 0 1 2.441406e-004 0)" font-family="'Ubuntu'" font-size="12">(...)</text>
				</g>
				<g transform="translate(5, 0)">
					<g transform="translate(150, 15)">
						<text transform="matrix(1 0 0 1 2.441406e-004 0)" font-family="'ArialMT'" font-size="12">(...)</text>
					</g>
				</g>
			</g>
			<g transform="translate(0, 180)">
				<rect x="0" fill="none" stroke="#000000" width="150" height="20"/>
				<g transform="translate(5, 15)">
				</g>
				<g transform="translate(5, 0)">
					<g transform="translate(150, 15)">
						<text transform="matrix(1 0 0 1 2.441406e-004 0)" font-family="'Ubuntu'" font-size="12">[ebp -130]</text>
					</g>
				</g>
			</g>
			<g transform="translate(0, 200)">
				<rect x="0" fill="none" stroke="#000000" width="150" height="20"/>
				<g transform="translate(5, 15)">
					<text transform="matrix(1 0 0 1 2.441406e-004 0)" font-family="'Ubuntu'" font-size="12">edi</text>
				</g>
				<g transform="translate(5, 0)">
					<g transform="translate(150, 15)">
						<text transform="matrix(1 0 0 1 2.441406e-004 0)" font-family="'Ubuntu'" font-size="12">[ebp -134]</text>
					</g>
				</g>
			</g>
			<g transform="translate(0, 220)">
				<rect x="0" fill="none" stroke="#000000" width="150" height="20"/>
				<g transform="translate(5, 15)">
					<text transform="matrix(1 0 0 1 2.441406e-004 0)" font-family="'Ubuntu'" font-size="12">esi</text>
				</g>
				<g transform="translate(5, 0)">
					<g transform="translate(150, 15)">
						<text transform="matrix(1 0 0 1 2.441406e-004 0)" font-family="'Ubuntu'" font-size="12">[ebp -138]</text>
					</g>
				</g>
			</g>
			<g transform="translate(0, 240)">
				<rect x="0" fill="none" stroke="#000000" width="150" height="20"/>
				<g transform="translate(5, 15)">
					<text transform="matrix(1 0 0 1 2.441406e-004 0)" font-family="'Ubuntu'" font-size="12">100075C50h</text>
				</g>
				<g transform="translate(5, 0)">
					<g transform="translate(150, 15)">
						<text transform="matrix(1 0 0 1 2.441406e-004 0)" font-family="'Ubuntu'" font-size="12">[ebp -13C]</text>
					</g>
				</g>
			</g>
			<g transform="translate(0, 260)">
				<rect x="0" fill="none" stroke="#000000" width="150" height="20"/>
				<g transform="translate(5, 15)">
					<text transform="matrix(1 0 0 1 2.441406e-004 0)" font-family="'Ubuntu'" font-size="12">ecx</text>
				</g>
				<g transform="translate(5, 0)">
					<g transform="translate(150, 15)">
						<text transform="matrix(1 0 0 1 2.441406e-004 0)" font-family="'Ubuntu'" font-size="12">[ebp -140]</text>
					</g>
				</g>
			</g>
			<g transform="translate(-40, 260)">
				<text transform="matrix(1 0 0 1 2.441406e-004 15)" font-family="'Ubuntu'" font-size="12">ESP</text>
				<path fill="none" d=""/>
				<path d="M32,7l6,3l-6,3V7z"/>
				<path d="M32,10"/>
			</g>
		</g>
	</g>
</g>
<g transform="translate(0, 2040)">
	<g transform="translate(10, 10)">
		<g transform="translate(40, 0)">
			<g transform="translate(0, 0)">
				<polyline fill="none" stroke="#000000" points="150,0 150,40 0,40 0,0 				"/>
				<g transform="translate(5, 15)">
					<text transform="matrix(1 0 0 1 -2.441406e-004 0)" font-family="'Ubuntu-Medium'" font-size="12">49: add esp, 8</text>
				</g>
			</g>
			<g transform="translate(0, 40)">
				<rect x="0" fill="none" stroke="#000000" width="150" height="20"/>
				<g transform="translate(5, 15)">
					<text transform="matrix(1 0 0 1 -2.441406e-004 0)" font-family="'Ubuntu'" font-size="12">lpvReserved</text>
				</g>
				<g transform="translate(5, 0)">
					<g transform="translate(150, 15)">
						<text transform="matrix(1 0 0 1 -2.441406e-004 0)" font-family="'Ubuntu'" font-size="12">[ebp +10]</text>
					</g>
				</g>
			</g>
			<g transform="translate(0, 60)">
				<rect x="0" fill="none" stroke="#000000" width="150" height="20"/>
				<g transform="translate(5, 15)">
					<text transform="matrix(1 0 0 1 -2.441406e-004 0)" font-family="'Ubuntu'" font-size="12">fdwReason</text>
				</g>
				<g transform="translate(5, 0)">
					<g transform="translate(150, 15)">
						<text transform="matrix(1 0 0 1 -2.441406e-004 0)" font-family="'Ubuntu'" font-size="12">[ebp +C]</text>
					</g>
				</g>
			</g>
			<g transform="translate(0, 80)">
				<rect x="0" fill="none" stroke="#000000" width="150" height="20"/>
				<g transform="translate(5, 15)">
					<text transform="matrix(1 0 0 1 -2.441406e-004 0)" font-family="'Ubuntu'" font-size="12">hinstDLL</text>
				</g>
				<g transform="translate(5, 0)">
					<g transform="translate(150, 15)">
						<text transform="matrix(1 0 0 1 -2.441406e-004 0)" font-family="'Ubuntu'" font-size="12">[ebp +8]</text>
					</g>
				</g>
			</g>
			<g transform="translate(0, 100)">
				<rect x="0" fill="none" stroke="#000000" width="150" height="20"/>
				<g transform="translate(5, 15)">
					<text transform="matrix(1 0 0 1 -2.441406e-004 0)" font-family="'Ubuntu'" font-size="12">eip</text>
				</g>
				<g transform="translate(5, 0)">
					<g transform="translate(150, 15)">
						<text transform="matrix(1 0 0 1 -2.441406e-004 0)" font-family="'Ubuntu'" font-size="12">[ebp +4]</text>
					</g>
				</g>
			</g>
			<g transform="translate(0, 120)">
				<rect x="0" fill="none" stroke="#000000" width="150" height="20"/>
				<g transform="translate(5, 15)">
					<text transform="matrix(1 0 0 1 -2.441406e-004 0)" font-family="'Ubuntu'" font-size="12">ebp</text>
				</g>
				<g transform="translate(5, 0)">
					<g transform="translate(150, 15)">
						<text transform="matrix(1 0 0 1 -2.441406e-004 0)" font-family="'Ubuntu'" font-size="12">EBP</text>
					</g>
				</g>
			</g>
			<g transform="translate(0, 140)">
				<rect x="0" fill="none" stroke="#000000" width="150" height="20"/>
				<g transform="translate(5, 15)">
				</g>
				<g transform="translate(5, 0)">
					<g transform="translate(150, 15)">
						<text transform="matrix(1 0 0 1 -2.441406e-004 0)" font-family="'Ubuntu'" font-size="12">[ebp -4]</text>
					</g>
				</g>
			</g>
			<g transform="translate(0, 160)">
				<rect x="0" fill="none" stroke="#000000" width="150" height="20"/>
				<g transform="translate(5, 15)">
					<text transform="matrix(1 0 0 1 -2.441406e-004 0)" font-family="'Ubuntu'" font-size="12">(...)</text>
				</g>
				<g transform="translate(5, 0)">
					<g transform="translate(150, 15)">
						<text transform="matrix(1 0 0 1 -2.441406e-004 0)" font-family="'Ubuntu'" font-size="12">(...)</text>
					</g>
				</g>
			</g>
			<g transform="translate(0, 180)">
				<rect x="0" fill="none" stroke="#000000" width="150" height="20"/>
				<g transform="translate(5, 15)">
				</g>
				<g transform="translate(5, 0)">
					<g transform="translate(150, 15)">
						<text transform="matrix(1 0 0 1 -2.441406e-004 0)" font-family="'Ubuntu'" font-size="12">[ebp -130]</text>
					</g>
				</g>
			</g>
			<g transform="translate(0, 200)">
				<rect x="0" fill="none" stroke="#000000" width="150" height="20"/>
				<g transform="translate(5, 15)">
					<text transform="matrix(1 0 0 1 -2.441406e-004 0)" font-family="'Ubuntu'" font-size="12">edi</text>
				</g>
				<g transform="translate(5, 0)">
					<g transform="translate(150, 15)">
						<text transform="matrix(1 0 0 1 -2.441406e-004 0)" font-family="'Ubuntu'" font-size="12">[ebp -134]</text>
					</g>
				</g>
			</g>
			<g transform="translate(0, 220)">
				<rect x="0" fill="none" stroke="#000000" width="150" height="20"/>
				<g transform="translate(5, 15)">
					<text transform="matrix(1 0 0 1 -2.441406e-004 0)" font-family="'Ubuntu'" font-size="12">esi</text>
				</g>
				<g transform="translate(5, 0)">
					<g transform="translate(150, 15)">
						<text transform="matrix(1 0 0 1 -2.441406e-004 0)" font-family="'Ubuntu'" font-size="12">[ebp -138]</text>
					</g>
				</g>
			</g>
			<g transform="translate(-40, 220)">
				<text transform="matrix(1 0 0 1 -2.441406e-004 15)" font-family="'Ubuntu'" font-size="12">ESP</text>
				<path fill="none" d=""/>
				<path d="M32,7l6,3l-6,3V7z"/>
				<path d="M32,10"/>
			</g>
		</g>
	</g>
</g>
<g transform="translate(310, 2040)">
	<g transform="translate(10, 10)">
		<g transform="translate(40, 0)">
			<g transform="translate(-40, 240)">
				<path fill="none" d=""/>
			</g>
		</g>
	</g>
</g>
<g transform="translate(0, 2320)">
	<g transform="translate(10, 10)">
		<g transform="translate(40, 0)">
			<g transform="translate(-40, 260)">
				<path fill="none" d=""/>
			</g>
		</g>
	</g>
</g>
<g transform="translate(310, 2320)">
	<g transform="translate(10, 10)">
		<g transform="translate(40, 0)">
			<g transform="translate(-40, 220)">
				<path fill="none" d=""/>
			</g>
		</g>
	</g>
</g>
<g transform="translate(0, 2620)">
	<g transform="translate(10, 10)">
		<g transform="translate(40, 0)">
			<g transform="translate(-40, 240)">
				<path fill="none" d=""/>
			</g>
		</g>
	</g>
</g>
<g transform="translate(310, 2620)">
	<g transform="translate(10, 10)">
		<g transform="translate(40, 0)">
			<g transform="translate(-40, 260)">
				<path fill="none" d=""/>
			</g>
		</g>
	</g>
</g>
<g transform="translate(0, 2920)">
	<g transform="translate(10, 10)">
		<g transform="translate(40, 0)">
			<g transform="translate(-40, 220)">
				<path fill="none" d=""/>
			</g>
		</g>
	</g>
</g>
<g transform="translate(310, 2920)">
	<g transform="translate(10, 10)">
		<g transform="translate(40, 0)">
			<g transform="translate(-40, 200)">
				<path fill="none" d=""/>
			</g>
		</g>
	</g>
</g>
<g transform="translate(0, 3180)">
	<g transform="translate(10, 10)">
		<g transform="translate(40, 0)">
			<g transform="translate(-40, 220)">
				<path fill="none" d=""/>
			</g>
		</g>
	</g>
</g>
<g transform="translate(310, 3180)">
	<g transform="translate(10, 10)">
		<g transform="translate(40, 0)">
			<g transform="translate(-40, 240)">
				<path fill="none" d=""/>
			</g>
		</g>
	</g>
</g>
<g transform="translate(0, 3460)">
	<g transform="translate(10, 10)">
		<g transform="translate(40, 0)">
			<g transform="translate(-40, 260)">
				<path fill="none" d=""/>
			</g>
		</g>
	</g>
</g>
<g transform="translate(310, 3460)">
	<g transform="translate(10, 10)">
		<g transform="translate(40, 0)">
			<g transform="translate(-40, 280)">
				<path fill="none" d=""/>
			</g>
		</g>
	</g>
</g>
<g transform="translate(0, 3780)">
	<g transform="translate(10, 10)">
		<g transform="translate(40, 0)">
			<g transform="translate(-40, 300)">
				<path fill="none" d=""/>
			</g>
		</g>
	</g>
</g>
<g transform="translate(310, 3780)">
	<g transform="translate(10, 10)">
		<g transform="translate(40, 0)">
			<g transform="translate(-40, 320)">
				<path fill="none" d=""/>
			</g>
		</g>
	</g>
</g>
<g transform="translate(0, 4140)">
	<g transform="translate(10, 10)">
		<g transform="translate(40, 0)">
			<g transform="translate(-40, 200)">
				<path fill="none" d=""/>
			</g>
		</g>
	</g>
</g>
<g transform="translate(310, 4140)">
	<g transform="translate(10, 10)">
		<g transform="translate(40, 0)">
			<g transform="translate(-40, 180)">
				<path fill="none" d=""/>
			</g>
		</g>
	</g>
</g>
<g transform="translate(0, 4380)">
	<g transform="translate(10, 10)">
		<g transform="translate(40, 0)">
			<g transform="translate(-40, 120)">
				<path fill="none" d=""/>
			</g>
		</g>
	</g>
</g>
<g transform="translate(310, 4380)">
	<g transform="translate(10, 10)">
		<g transform="translate(40, 0)">
			<g transform="translate(-40, 100)">
				<path fill="none" d=""/>
			</g>
		</g>
	</g>
</g>
<g transform="translate(0, 4540)">
	<g transform="translate(10, 10)">
		<g transform="translate(40, 0)">
			<g transform="translate(-40, 40)">
				<path fill="none" d=""/>
			</g>
		</g>
	</g>
</g>
</svg>
